<svg  viewBox="0 0 480 480" fill="none" xmlns="http://www.w3.org/2000/svg">
<rect y="1" width="480" height="479" fill="white"/>
<rect x="0.5" y="440.5" width="479" height="39" fill="white" stroke="black"/>
<rect x="0.5" y="400.5" width="479" height="39" fill="white" stroke="black"/>
<rect x="0.5" y="360.5" width="479" height="39" fill="white" stroke="black"/>
<rect x="0.5" y="320.5" width="479" height="39" fill="white" stroke="black"/>
<rect x="0.5" y="280.5" width="479" height="39" fill="white" stroke="black"/>
<rect x="0.5" y="240.5" width="479" height="39" fill="white" stroke="black"/>
<rect x="0.5" y="200.5" width="479" height="39" fill="#FFD698" stroke="black"/>
<path d="M22.05 213.778C22.794 213.778 23.43 213.916 23.958 214.192C24.498 214.468 24.906 214.84 25.182 215.308C25.47 215.776 25.614 216.286 25.614 216.838C25.614 217.57 25.398 218.176 24.966 218.656C24.546 219.124 23.982 219.442 23.274 219.61C24.078 219.682 24.732 219.97 25.236 220.474C25.74 220.978 25.992 221.662 25.992 222.526C25.992 223.222 25.824 223.852 25.488 224.416C25.152 224.98 24.672 225.424 24.048 225.748C23.424 226.06 22.704 226.216 21.888 226.216C21.156 226.216 20.484 226.084 19.872 225.82C19.26 225.544 18.726 225.136 18.27 224.596L19.26 223.678C19.656 224.086 20.058 224.386 20.466 224.578C20.886 224.77 21.342 224.866 21.834 224.866C22.59 224.866 23.184 224.656 23.616 224.236C24.048 223.804 24.264 223.228 24.264 222.508C24.264 221.716 24.06 221.158 23.652 220.834C23.244 220.51 22.65 220.348 21.87 220.348H20.97L21.168 219.07H21.78C22.404 219.07 22.92 218.884 23.328 218.512C23.748 218.14 23.958 217.618 23.958 216.946C23.958 216.382 23.778 215.938 23.418 215.614C23.058 215.278 22.572 215.11 21.96 215.11C21.492 215.11 21.06 215.194 20.664 215.362C20.28 215.53 19.884 215.806 19.476 216.19L18.612 215.2C19.632 214.252 20.778 213.778 22.05 213.778ZM29.1244 223.714C29.4844 223.714 29.7844 223.834 30.0244 224.074C30.2644 224.314 30.3844 224.608 30.3844 224.956C30.3844 225.304 30.2644 225.604 30.0244 225.856C29.7844 226.096 29.4844 226.216 29.1244 226.216C28.7764 226.216 28.4824 226.096 28.2424 225.856C28.0024 225.604 27.8824 225.304 27.8824 224.956C27.8824 224.608 28.0024 224.314 28.2424 224.074C28.4824 223.834 28.7764 223.714 29.1244 223.714ZM50.4883 213.598L47.9683 226H45.7723L43.4863 215.614L41.1823 226H39.0403L36.5203 213.598H38.1943L40.1923 224.506L42.5863 213.598H44.4043L46.8523 224.506L48.9223 213.598H50.4883ZM57.1154 216.298C57.9794 216.298 58.6514 216.556 59.1314 217.072C59.6234 217.588 59.8694 218.296 59.8694 219.196V226H58.2134V219.43C58.2134 218.758 58.0814 218.284 57.8174 218.008C57.5654 217.732 57.1934 217.594 56.7014 217.594C56.2094 217.594 55.7714 217.738 55.3874 218.026C55.0034 218.314 54.6434 218.722 54.3074 219.25V226H52.6514V212.716L54.3074 212.536V217.828C55.0514 216.808 55.9874 216.298 57.1154 216.298ZM69.5883 223.786C69.5883 224.17 69.6543 224.458 69.7863 224.65C69.9183 224.83 70.1163 224.968 70.3803 225.064L70.0023 226.216C69.5103 226.156 69.1143 226.018 68.8143 225.802C68.5143 225.586 68.2923 225.25 68.1483 224.794C67.5123 225.742 66.5703 226.216 65.3223 226.216C64.3863 226.216 63.6483 225.952 63.1083 225.424C62.5683 224.896 62.2983 224.206 62.2983 223.354C62.2983 222.346 62.6583 221.572 63.3783 221.032C64.1103 220.492 65.1423 220.222 66.4743 220.222H67.9323V219.52C67.9323 218.848 67.7703 218.368 67.4463 218.08C67.1223 217.792 66.6243 217.648 65.9523 217.648C65.2563 217.648 64.4043 217.816 63.3963 218.152L62.9823 216.946C64.1583 216.514 65.2503 216.298 66.2583 216.298C67.3743 216.298 68.2083 216.574 68.7603 217.126C69.3123 217.666 69.5883 218.44 69.5883 219.448V223.786ZM65.7003 224.974C66.6483 224.974 67.3923 224.482 67.9323 223.498V221.32H66.6903C64.9383 221.32 64.0623 221.968 64.0623 223.264C64.0623 223.828 64.2003 224.254 64.4763 224.542C64.7523 224.83 65.1603 224.974 65.7003 224.974ZM77.7773 225.568C77.1533 226 76.4453 226.216 75.6533 226.216C74.8493 226.216 74.2193 225.988 73.7633 225.532C73.3193 225.064 73.0973 224.392 73.0973 223.516V217.792H71.4413V216.514H73.0973V214.372L74.7533 214.174V216.514H77.0033L76.8233 217.792H74.7533V223.444C74.7533 223.936 74.8373 224.296 75.0053 224.524C75.1853 224.74 75.4793 224.848 75.8873 224.848C76.2593 224.848 76.6793 224.722 77.1473 224.47L77.7773 225.568ZM85.9129 216.514V226H84.2569V216.514H85.9129ZM85.0669 211.96C85.4149 211.96 85.6969 212.068 85.9129 212.284C86.1289 212.5 86.2369 212.77 86.2369 213.094C86.2369 213.418 86.1289 213.688 85.9129 213.904C85.6969 214.108 85.4149 214.21 85.0669 214.21C84.7309 214.21 84.4549 214.108 84.2389 213.904C84.0229 213.688 83.9149 213.418 83.9149 213.094C83.9149 212.77 84.0229 212.5 84.2389 212.284C84.4549 212.068 84.7309 211.96 85.0669 211.96ZM91.911 216.298C92.559 216.298 93.141 216.388 93.657 216.568C94.173 216.748 94.665 217.018 95.133 217.378L94.431 218.422C93.999 218.146 93.585 217.942 93.189 217.81C92.805 217.678 92.397 217.612 91.965 217.612C91.425 217.612 90.999 217.726 90.687 217.954C90.375 218.17 90.219 218.47 90.219 218.854C90.219 219.238 90.363 219.538 90.651 219.754C90.951 219.97 91.485 220.18 92.253 220.384C93.309 220.648 94.095 221.008 94.611 221.464C95.139 221.92 95.403 222.544 95.403 223.336C95.403 224.272 95.037 224.986 94.305 225.478C93.585 225.97 92.703 226.216 91.659 226.216C90.219 226.216 89.025 225.802 88.077 224.974L88.959 223.966C89.763 224.578 90.651 224.884 91.623 224.884C92.247 224.884 92.739 224.758 93.099 224.506C93.471 224.242 93.657 223.888 93.657 223.444C93.657 223.12 93.591 222.862 93.459 222.67C93.327 222.466 93.099 222.292 92.775 222.148C92.451 221.992 91.977 221.83 91.353 221.662C90.345 221.398 89.613 221.044 89.157 220.6C88.713 220.156 88.491 219.592 88.491 218.908C88.491 218.416 88.635 217.972 88.923 217.576C89.223 217.168 89.631 216.856 90.147 216.64C90.675 216.412 91.263 216.298 91.911 216.298ZM107.291 225.568C106.667 226 105.959 226.216 105.167 226.216C104.363 226.216 103.733 225.988 103.277 225.532C102.833 225.064 102.611 224.392 102.611 223.516V217.792H100.955V216.514H102.611V214.372L104.267 214.174V216.514H106.517L106.337 217.792H104.267V223.444C104.267 223.936 104.351 224.296 104.519 224.524C104.699 224.74 104.993 224.848 105.401 224.848C105.773 224.848 106.193 224.722 106.661 224.47L107.291 225.568ZM113.471 216.298C114.335 216.298 115.007 216.556 115.487 217.072C115.979 217.588 116.225 218.296 116.225 219.196V226H114.569V219.43C114.569 218.758 114.437 218.284 114.173 218.008C113.921 217.732 113.549 217.594 113.057 217.594C112.565 217.594 112.127 217.738 111.743 218.026C111.359 218.314 110.999 218.722 110.663 219.25V226H109.007V212.716L110.663 212.536V217.828C111.407 216.808 112.343 216.298 113.471 216.298ZM126.718 220.978C126.718 221.254 126.706 221.536 126.682 221.824H120.634C120.706 222.868 120.97 223.636 121.426 224.128C121.882 224.62 122.47 224.866 123.19 224.866C123.646 224.866 124.066 224.8 124.45 224.668C124.834 224.536 125.236 224.326 125.656 224.038L126.376 225.028C125.368 225.82 124.264 226.216 123.064 226.216C121.744 226.216 120.712 225.784 119.968 224.92C119.236 224.056 118.87 222.868 118.87 221.356C118.87 220.372 119.026 219.502 119.338 218.746C119.662 217.978 120.118 217.378 120.706 216.946C121.306 216.514 122.008 216.298 122.812 216.298C124.072 216.298 125.038 216.712 125.71 217.54C126.382 218.368 126.718 219.514 126.718 220.978ZM125.08 220.492C125.08 219.556 124.894 218.842 124.522 218.35C124.15 217.858 123.592 217.612 122.848 217.612C121.492 217.612 120.754 218.608 120.634 220.6H125.08V220.492ZM137.582 216.298C138.146 216.298 138.662 216.382 139.13 216.55C139.598 216.706 140.048 216.964 140.48 217.324L139.688 218.368C139.352 218.128 139.022 217.954 138.698 217.846C138.386 217.726 138.038 217.666 137.654 217.666C136.886 217.666 136.286 217.972 135.854 218.584C135.434 219.196 135.224 220.102 135.224 221.302C135.224 222.502 135.434 223.39 135.854 223.966C136.274 224.53 136.874 224.812 137.654 224.812C138.026 224.812 138.368 224.758 138.68 224.65C138.992 224.53 139.34 224.344 139.724 224.092L140.48 225.172C139.616 225.868 138.65 226.216 137.582 226.216C136.298 226.216 135.284 225.784 134.54 224.92C133.808 224.056 133.442 222.862 133.442 221.338C133.442 220.33 133.61 219.448 133.946 218.692C134.282 217.936 134.756 217.348 135.368 216.928C135.992 216.508 136.73 216.298 137.582 216.298ZM144.612 226.216C144 226.216 143.514 226.036 143.154 225.676C142.806 225.304 142.632 224.788 142.632 224.128V212.698L144.288 212.5V224.092C144.288 224.356 144.33 224.548 144.414 224.668C144.51 224.788 144.666 224.848 144.882 224.848C145.11 224.848 145.314 224.812 145.494 224.74L145.926 225.892C145.53 226.108 145.092 226.216 144.612 226.216ZM151.471 216.298C152.803 216.298 153.835 216.742 154.567 217.63C155.311 218.518 155.683 219.724 155.683 221.248C155.683 222.232 155.515 223.102 155.179 223.858C154.843 224.602 154.357 225.184 153.721 225.604C153.085 226.012 152.329 226.216 151.453 226.216C150.121 226.216 149.083 225.772 148.339 224.884C147.595 223.996 147.223 222.79 147.223 221.266C147.223 220.282 147.391 219.418 147.727 218.674C148.063 217.918 148.549 217.336 149.185 216.928C149.821 216.508 150.583 216.298 151.471 216.298ZM151.471 217.63C149.827 217.63 149.005 218.842 149.005 221.266C149.005 223.678 149.821 224.884 151.453 224.884C153.085 224.884 153.901 223.672 153.901 221.248C153.901 218.836 153.091 217.63 151.471 217.63ZM160.993 216.298C161.641 216.298 162.223 216.388 162.739 216.568C163.255 216.748 163.747 217.018 164.215 217.378L163.513 218.422C163.081 218.146 162.667 217.942 162.271 217.81C161.887 217.678 161.479 217.612 161.047 217.612C160.507 217.612 160.081 217.726 159.769 217.954C159.457 218.17 159.301 218.47 159.301 218.854C159.301 219.238 159.445 219.538 159.733 219.754C160.033 219.97 160.567 220.18 161.335 220.384C162.391 220.648 163.177 221.008 163.693 221.464C164.221 221.92 164.485 222.544 164.485 223.336C164.485 224.272 164.119 224.986 163.387 225.478C162.667 225.97 161.785 226.216 160.741 226.216C159.301 226.216 158.107 225.802 157.159 224.974L158.041 223.966C158.845 224.578 159.733 224.884 160.705 224.884C161.329 224.884 161.821 224.758 162.181 224.506C162.553 224.242 162.739 223.888 162.739 223.444C162.739 223.12 162.673 222.862 162.541 222.67C162.409 222.466 162.181 222.292 161.857 222.148C161.533 221.992 161.059 221.83 160.435 221.662C159.427 221.398 158.695 221.044 158.239 220.6C157.795 220.156 157.573 219.592 157.573 218.908C157.573 218.416 157.717 217.972 158.005 217.576C158.305 217.168 158.713 216.856 159.229 216.64C159.757 216.412 160.345 216.298 160.993 216.298ZM173.985 220.978C173.985 221.254 173.973 221.536 173.949 221.824H167.901C167.973 222.868 168.237 223.636 168.693 224.128C169.149 224.62 169.737 224.866 170.457 224.866C170.913 224.866 171.333 224.8 171.717 224.668C172.101 224.536 172.503 224.326 172.923 224.038L173.643 225.028C172.635 225.82 171.531 226.216 170.331 226.216C169.011 226.216 167.979 225.784 167.235 224.92C166.503 224.056 166.137 222.868 166.137 221.356C166.137 220.372 166.293 219.502 166.605 218.746C166.929 217.978 167.385 217.378 167.973 216.946C168.573 216.514 169.275 216.298 170.079 216.298C171.339 216.298 172.305 216.712 172.977 217.54C173.649 218.368 173.985 219.514 173.985 220.978ZM172.347 220.492C172.347 219.556 172.161 218.842 171.789 218.35C171.417 217.858 170.859 217.612 170.115 217.612C168.759 217.612 168.021 218.608 167.901 220.6H172.347V220.492ZM179.204 216.298C179.852 216.298 180.434 216.388 180.95 216.568C181.466 216.748 181.958 217.018 182.426 217.378L181.724 218.422C181.292 218.146 180.878 217.942 180.482 217.81C180.098 217.678 179.69 217.612 179.258 217.612C178.718 217.612 178.292 217.726 177.98 217.954C177.668 218.17 177.512 218.47 177.512 218.854C177.512 219.238 177.656 219.538 177.944 219.754C178.244 219.97 178.778 220.18 179.546 220.384C180.602 220.648 181.388 221.008 181.904 221.464C182.432 221.92 182.696 222.544 182.696 223.336C182.696 224.272 182.33 224.986 181.598 225.478C180.878 225.97 179.996 226.216 178.952 226.216C177.512 226.216 176.318 225.802 175.37 224.974L176.252 223.966C177.056 224.578 177.944 224.884 178.916 224.884C179.54 224.884 180.032 224.758 180.392 224.506C180.764 224.242 180.95 223.888 180.95 223.444C180.95 223.12 180.884 222.862 180.752 222.67C180.62 222.466 180.392 222.292 180.068 222.148C179.744 221.992 179.27 221.83 178.646 221.662C177.638 221.398 176.906 221.044 176.45 220.6C176.006 220.156 175.784 219.592 175.784 218.908C175.784 218.416 175.928 217.972 176.216 217.576C176.516 217.168 176.924 216.856 177.44 216.64C177.968 216.412 178.556 216.298 179.204 216.298ZM189.82 225.568C189.196 226 188.488 226.216 187.696 226.216C186.892 226.216 186.262 225.988 185.806 225.532C185.362 225.064 185.14 224.392 185.14 223.516V217.792H183.484V216.514H185.14V214.372L186.796 214.174V216.514H189.046L188.866 217.792H186.796V223.444C186.796 223.936 186.88 224.296 187.048 224.524C187.228 224.74 187.522 224.848 187.93 224.848C188.302 224.848 188.722 224.722 189.19 224.47L189.82 225.568ZM198.874 216.298C199.522 216.298 200.104 216.388 200.62 216.568C201.136 216.748 201.628 217.018 202.096 217.378L201.394 218.422C200.962 218.146 200.548 217.942 200.152 217.81C199.768 217.678 199.36 217.612 198.928 217.612C198.388 217.612 197.962 217.726 197.65 217.954C197.338 218.17 197.182 218.47 197.182 218.854C197.182 219.238 197.326 219.538 197.614 219.754C197.914 219.97 198.448 220.18 199.216 220.384C200.272 220.648 201.058 221.008 201.574 221.464C202.102 221.92 202.366 222.544 202.366 223.336C202.366 224.272 202 224.986 201.268 225.478C200.548 225.97 199.666 226.216 198.622 226.216C197.182 226.216 195.988 225.802 195.04 224.974L195.922 223.966C196.726 224.578 197.614 224.884 198.586 224.884C199.21 224.884 199.702 224.758 200.062 224.506C200.434 224.242 200.62 223.888 200.62 223.444C200.62 223.12 200.554 222.862 200.422 222.67C200.29 222.466 200.062 222.292 199.738 222.148C199.414 221.992 198.94 221.83 198.316 221.662C197.308 221.398 196.576 221.044 196.12 220.6C195.676 220.156 195.454 219.592 195.454 218.908C195.454 218.416 195.598 217.972 195.886 217.576C196.186 217.168 196.594 216.856 197.11 216.64C197.638 216.412 198.226 216.298 198.874 216.298ZM209.49 225.568C208.866 226 208.158 226.216 207.366 226.216C206.562 226.216 205.932 225.988 205.476 225.532C205.032 225.064 204.81 224.392 204.81 223.516V217.792H203.154V216.514H204.81V214.372L206.466 214.174V216.514H208.716L208.536 217.792H206.466V223.444C206.466 223.936 206.55 224.296 206.718 224.524C206.898 224.74 207.192 224.848 207.6 224.848C207.972 224.848 208.392 224.722 208.86 224.47L209.49 225.568ZM217.473 223.786C217.473 224.17 217.539 224.458 217.671 224.65C217.803 224.83 218.001 224.968 218.265 225.064L217.887 226.216C217.395 226.156 216.999 226.018 216.699 225.802C216.399 225.586 216.177 225.25 216.033 224.794C215.397 225.742 214.455 226.216 213.207 226.216C212.271 226.216 211.533 225.952 210.993 225.424C210.453 224.896 210.183 224.206 210.183 223.354C210.183 222.346 210.543 221.572 211.263 221.032C211.995 220.492 213.027 220.222 214.359 220.222H215.817V219.52C215.817 218.848 215.655 218.368 215.331 218.08C215.007 217.792 214.509 217.648 213.837 217.648C213.141 217.648 212.289 217.816 211.281 218.152L210.867 216.946C212.043 216.514 213.135 216.298 214.143 216.298C215.259 216.298 216.093 216.574 216.645 217.126C217.197 217.666 217.473 218.44 217.473 219.448V223.786ZM213.585 224.974C214.533 224.974 215.277 224.482 215.817 223.498V221.32H214.575C212.823 221.32 211.947 221.968 211.947 223.264C211.947 223.828 212.085 224.254 212.361 224.542C212.637 224.83 213.045 224.974 213.585 224.974ZM224.996 216.298C225.332 216.298 225.644 216.334 225.932 216.406L225.626 218.026C225.338 217.954 225.062 217.918 224.798 217.918C224.21 217.918 223.736 218.134 223.376 218.566C223.016 218.998 222.734 219.67 222.53 220.582V226H220.874V216.514H222.296L222.458 218.44C222.71 217.732 223.052 217.198 223.484 216.838C223.916 216.478 224.42 216.298 224.996 216.298ZM237.369 225.568C236.745 226 236.037 226.216 235.245 226.216C234.441 226.216 233.811 225.988 233.355 225.532C232.911 225.064 232.689 224.392 232.689 223.516V217.792H231.033V216.514H232.689V214.372L234.345 214.174V216.514H236.595L236.415 217.792H234.345V223.444C234.345 223.936 234.429 224.296 234.597 224.524C234.777 224.74 235.071 224.848 235.479 224.848C235.851 224.848 236.271 224.722 236.739 224.47L237.369 225.568ZM242.385 216.298C243.717 216.298 244.749 216.742 245.481 217.63C246.225 218.518 246.597 219.724 246.597 221.248C246.597 222.232 246.429 223.102 246.093 223.858C245.757 224.602 245.271 225.184 244.635 225.604C243.999 226.012 243.243 226.216 242.367 226.216C241.035 226.216 239.997 225.772 239.253 224.884C238.509 223.996 238.137 222.79 238.137 221.266C238.137 220.282 238.305 219.418 238.641 218.674C238.977 217.918 239.463 217.336 240.099 216.928C240.735 216.508 241.497 216.298 242.385 216.298ZM242.385 217.63C240.741 217.63 239.919 218.842 239.919 221.266C239.919 223.678 240.735 224.884 242.367 224.884C243.999 224.884 244.815 223.672 244.815 221.248C244.815 218.836 244.005 217.63 242.385 217.63ZM258.885 225.568C258.261 226 257.553 226.216 256.761 226.216C255.957 226.216 255.327 225.988 254.871 225.532C254.427 225.064 254.205 224.392 254.205 223.516V217.792H252.549V216.514H254.205V214.372L255.861 214.174V216.514H258.111L257.931 217.792H255.861V223.444C255.861 223.936 255.945 224.296 256.113 224.524C256.293 224.74 256.587 224.848 256.995 224.848C257.367 224.848 257.787 224.722 258.255 224.47L258.885 225.568ZM265.065 216.298C265.929 216.298 266.601 216.556 267.081 217.072C267.573 217.588 267.819 218.296 267.819 219.196V226H266.163V219.43C266.163 218.758 266.031 218.284 265.767 218.008C265.515 217.732 265.143 217.594 264.651 217.594C264.159 217.594 263.721 217.738 263.337 218.026C262.953 218.314 262.593 218.722 262.257 219.25V226H260.601V212.716L262.257 212.536V217.828C263.001 216.808 263.937 216.298 265.065 216.298ZM278.312 220.978C278.312 221.254 278.3 221.536 278.276 221.824H272.228C272.3 222.868 272.564 223.636 273.02 224.128C273.476 224.62 274.064 224.866 274.784 224.866C275.24 224.866 275.66 224.8 276.044 224.668C276.428 224.536 276.83 224.326 277.25 224.038L277.97 225.028C276.962 225.82 275.858 226.216 274.658 226.216C273.338 226.216 272.306 225.784 271.562 224.92C270.83 224.056 270.464 222.868 270.464 221.356C270.464 220.372 270.62 219.502 270.932 218.746C271.256 217.978 271.712 217.378 272.3 216.946C272.9 216.514 273.602 216.298 274.406 216.298C275.666 216.298 276.632 216.712 277.304 217.54C277.976 218.368 278.312 219.514 278.312 220.978ZM276.674 220.492C276.674 219.556 276.488 218.842 276.116 218.35C275.744 217.858 275.186 217.612 274.442 217.612C273.086 217.612 272.348 218.608 272.228 220.6H276.674V220.492ZM288.87 213.382C289.698 213.382 290.406 213.502 290.994 213.742C291.582 213.97 292.152 214.33 292.704 214.822L291.768 215.866C291.3 215.494 290.838 215.224 290.382 215.056C289.938 214.876 289.458 214.786 288.942 214.786C288.294 214.786 287.76 214.936 287.34 215.236C286.92 215.536 286.71 215.974 286.71 216.55C286.71 216.91 286.782 217.216 286.926 217.468C287.07 217.708 287.334 217.93 287.718 218.134C288.114 218.338 288.684 218.554 289.428 218.782C290.208 219.022 290.856 219.28 291.372 219.556C291.888 219.832 292.302 220.216 292.614 220.708C292.938 221.188 293.1 221.8 293.1 222.544C293.1 223.264 292.92 223.9 292.56 224.452C292.212 225.004 291.702 225.436 291.03 225.748C290.37 226.06 289.584 226.216 288.672 226.216C286.956 226.216 285.552 225.682 284.46 224.614L285.396 223.57C285.9 223.978 286.41 224.29 286.926 224.506C287.442 224.71 288.018 224.812 288.654 224.812C289.422 224.812 290.058 224.626 290.562 224.254C291.066 223.87 291.318 223.318 291.318 222.598C291.318 222.19 291.24 221.854 291.084 221.59C290.928 221.314 290.658 221.068 290.274 220.852C289.902 220.636 289.356 220.42 288.636 220.204C287.364 219.82 286.434 219.358 285.846 218.818C285.258 218.278 284.964 217.546 284.964 216.622C284.964 215.998 285.126 215.44 285.45 214.948C285.786 214.456 286.248 214.072 286.836 213.796C287.436 213.52 288.114 213.382 288.87 213.382ZM302.584 226H301.162L301.036 224.524C300.676 225.112 300.262 225.544 299.794 225.82C299.326 226.084 298.756 226.216 298.084 226.216C297.256 226.216 296.608 225.964 296.14 225.46C295.672 224.956 295.438 224.242 295.438 223.318V216.514H297.094V223.138C297.094 223.786 297.208 224.248 297.436 224.524C297.664 224.788 298.036 224.92 298.552 224.92C299.476 224.92 300.268 224.374 300.928 223.282V216.514H302.584V226ZM310.469 216.298C311.333 216.298 312.005 216.556 312.485 217.072C312.977 217.588 313.223 218.296 313.223 219.196V226H311.567V219.43C311.567 218.758 311.441 218.284 311.189 218.008C310.937 217.732 310.565 217.594 310.073 217.594C309.569 217.594 309.125 217.738 308.741 218.026C308.357 218.314 307.997 218.728 307.661 219.268V226H306.005V216.514H307.427L307.571 217.918C307.907 217.414 308.321 217.018 308.813 216.73C309.317 216.442 309.869 216.298 310.469 216.298Z" fill="black"/>
<rect x="0.5" y="160.5" width="479" height="39" fill="#FF9191" stroke="black"/>
<path d="M24.104 173.778C24.824 173.778 25.454 173.922 25.994 174.21C26.546 174.498 26.972 174.894 27.272 175.398C27.572 175.89 27.722 176.448 27.722 177.072C27.722 177.804 27.554 178.506 27.218 179.178C26.894 179.85 26.39 180.576 25.706 181.356C25.022 182.136 23.984 183.222 22.592 184.614H28.01L27.812 186H20.702V184.686C22.31 183.018 23.45 181.8 24.122 181.032C24.794 180.252 25.274 179.574 25.562 178.998C25.85 178.422 25.994 177.804 25.994 177.144C25.994 176.52 25.814 176.034 25.454 175.686C25.094 175.326 24.614 175.146 24.014 175.146C23.522 175.146 23.09 175.248 22.718 175.452C22.346 175.656 21.95 175.992 21.53 176.46L20.45 175.596C20.942 174.984 21.488 174.528 22.088 174.228C22.688 173.928 23.36 173.778 24.104 173.778ZM31.0541 183.714C31.4141 183.714 31.7141 183.834 31.9541 184.074C32.1941 184.314 32.3141 184.608 32.3141 184.956C32.3141 185.304 32.1941 185.604 31.9541 185.856C31.7141 186.096 31.4141 186.216 31.0541 186.216C30.7061 186.216 30.4121 186.096 30.1721 185.856C29.9321 185.604 29.8121 185.304 29.8121 184.956C29.8121 184.608 29.9321 184.314 30.1721 184.074C30.4121 183.834 30.7061 183.714 31.0541 183.714ZM46.2737 173.598V184.506H51.3677L51.1697 186H44.5637V173.598H46.2737ZM55.0945 176.514V186H53.4385V176.514H55.0945ZM54.2485 171.96C54.5965 171.96 54.8785 172.068 55.0945 172.284C55.3105 172.5 55.4185 172.77 55.4185 173.094C55.4185 173.418 55.3105 173.688 55.0945 173.904C54.8785 174.108 54.5965 174.21 54.2485 174.21C53.9125 174.21 53.6365 174.108 53.4205 173.904C53.2045 173.688 53.0965 173.418 53.0965 173.094C53.0965 172.77 53.2045 172.5 53.4205 172.284C53.6365 172.068 53.9125 171.96 54.2485 171.96ZM61.0926 176.298C61.7406 176.298 62.3226 176.388 62.8386 176.568C63.3546 176.748 63.8466 177.018 64.3146 177.378L63.6126 178.422C63.1806 178.146 62.7666 177.942 62.3706 177.81C61.9866 177.678 61.5786 177.612 61.1466 177.612C60.6066 177.612 60.1806 177.726 59.8686 177.954C59.5566 178.17 59.4006 178.47 59.4006 178.854C59.4006 179.238 59.5446 179.538 59.8326 179.754C60.1326 179.97 60.6666 180.18 61.4346 180.384C62.4906 180.648 63.2766 181.008 63.7926 181.464C64.3206 181.92 64.5846 182.544 64.5846 183.336C64.5846 184.272 64.2186 184.986 63.4866 185.478C62.7666 185.97 61.8846 186.216 60.8406 186.216C59.4006 186.216 58.2066 185.802 57.2586 184.974L58.1406 183.966C58.9446 184.578 59.8326 184.884 60.8046 184.884C61.4286 184.884 61.9206 184.758 62.2806 184.506C62.6526 184.242 62.8386 183.888 62.8386 183.444C62.8386 183.12 62.7726 182.862 62.6406 182.67C62.5086 182.466 62.2806 182.292 61.9566 182.148C61.6326 181.992 61.1586 181.83 60.5346 181.662C59.5266 181.398 58.7946 181.044 58.3386 180.6C57.8946 180.156 57.6726 179.592 57.6726 178.908C57.6726 178.416 57.8166 177.972 58.1046 177.576C58.4046 177.168 58.8126 176.856 59.3286 176.64C59.8566 176.412 60.4446 176.298 61.0926 176.298ZM71.7089 185.568C71.0849 186 70.3769 186.216 69.5849 186.216C68.7809 186.216 68.1509 185.988 67.6949 185.532C67.2509 185.064 67.0289 184.392 67.0289 183.516V177.792H65.3729V176.514H67.0289V174.372L68.6849 174.174V176.514H70.9349L70.7549 177.792H68.6849V183.444C68.6849 183.936 68.7689 184.296 68.9369 184.524C69.1169 184.74 69.4109 184.848 69.8189 184.848C70.1909 184.848 70.6109 184.722 71.0789 184.47L71.7089 185.568ZM82.9765 185.568C82.3525 186 81.6445 186.216 80.8525 186.216C80.0485 186.216 79.4185 185.988 78.9625 185.532C78.5185 185.064 78.2965 184.392 78.2965 183.516V177.792H76.6405V176.514H78.2965V174.372L79.9525 174.174V176.514H82.2025L82.0225 177.792H79.9525V183.444C79.9525 183.936 80.0365 184.296 80.2045 184.524C80.3845 184.74 80.6785 184.848 81.0865 184.848C81.4585 184.848 81.8785 184.722 82.3465 184.47L82.9765 185.568ZM89.1564 176.298C90.0204 176.298 90.6924 176.556 91.1724 177.072C91.6644 177.588 91.9104 178.296 91.9104 179.196V186H90.2544V179.43C90.2544 178.758 90.1224 178.284 89.8584 178.008C89.6064 177.732 89.2344 177.594 88.7424 177.594C88.2504 177.594 87.8124 177.738 87.4284 178.026C87.0444 178.314 86.6844 178.722 86.3484 179.25V186H84.6924V172.716L86.3484 172.536V177.828C87.0924 176.808 88.0284 176.298 89.1564 176.298ZM102.403 180.978C102.403 181.254 102.391 181.536 102.367 181.824H96.3193C96.3913 182.868 96.6553 183.636 97.1113 184.128C97.5673 184.62 98.1553 184.866 98.8753 184.866C99.3313 184.866 99.7513 184.8 100.135 184.668C100.519 184.536 100.921 184.326 101.341 184.038L102.061 185.028C101.053 185.82 99.9493 186.216 98.7493 186.216C97.4293 186.216 96.3973 185.784 95.6533 184.92C94.9213 184.056 94.5553 182.868 94.5553 181.356C94.5553 180.372 94.7113 179.502 95.0233 178.746C95.3473 177.978 95.8033 177.378 96.3913 176.946C96.9913 176.514 97.6933 176.298 98.4973 176.298C99.7573 176.298 100.723 176.712 101.395 177.54C102.067 178.368 102.403 179.514 102.403 180.978ZM100.765 180.492C100.765 179.556 100.579 178.842 100.207 178.35C99.8353 177.858 99.2773 177.612 98.5333 177.612C97.1773 177.612 96.4393 178.608 96.3193 180.6H100.765V180.492ZM119.334 176.298C120.114 176.298 120.738 176.562 121.206 177.09C121.674 177.606 121.908 178.308 121.908 179.196V186H120.252V179.43C120.252 178.206 119.808 177.594 118.92 177.594C118.452 177.594 118.056 177.732 117.732 178.008C117.408 178.272 117.06 178.692 116.688 179.268V186H115.032V179.43C115.032 178.206 114.588 177.594 113.7 177.594C113.22 177.594 112.818 177.732 112.494 178.008C112.17 178.284 111.828 178.704 111.468 179.268V186H109.812V176.514H111.234L111.378 177.9C112.086 176.832 112.998 176.298 114.114 176.298C114.702 176.298 115.2 176.448 115.608 176.748C116.028 177.048 116.328 177.468 116.508 178.008C116.88 177.456 117.288 177.036 117.732 176.748C118.188 176.448 118.722 176.298 119.334 176.298ZM128.809 176.298C130.141 176.298 131.173 176.742 131.905 177.63C132.649 178.518 133.021 179.724 133.021 181.248C133.021 182.232 132.853 183.102 132.517 183.858C132.181 184.602 131.695 185.184 131.059 185.604C130.423 186.012 129.667 186.216 128.791 186.216C127.459 186.216 126.421 185.772 125.677 184.884C124.933 183.996 124.561 182.79 124.561 181.266C124.561 180.282 124.729 179.418 125.065 178.674C125.401 177.918 125.887 177.336 126.523 176.928C127.159 176.508 127.921 176.298 128.809 176.298ZM128.809 177.63C127.165 177.63 126.343 178.842 126.343 181.266C126.343 183.678 127.159 184.884 128.791 184.884C130.423 184.884 131.239 183.672 131.239 181.248C131.239 178.836 130.429 177.63 128.809 177.63ZM139.321 176.298C140.653 176.298 141.685 176.742 142.417 177.63C143.161 178.518 143.533 179.724 143.533 181.248C143.533 182.232 143.365 183.102 143.029 183.858C142.693 184.602 142.207 185.184 141.571 185.604C140.935 186.012 140.179 186.216 139.303 186.216C137.971 186.216 136.933 185.772 136.189 184.884C135.445 183.996 135.073 182.79 135.073 181.266C135.073 180.282 135.241 179.418 135.577 178.674C135.913 177.918 136.399 177.336 137.035 176.928C137.671 176.508 138.433 176.298 139.321 176.298ZM139.321 177.63C137.677 177.63 136.855 178.842 136.855 181.266C136.855 183.678 137.671 184.884 139.303 184.884C140.935 184.884 141.751 183.672 141.751 181.248C141.751 178.836 140.941 177.63 139.321 177.63ZM150.733 176.298C151.597 176.298 152.269 176.556 152.749 177.072C153.241 177.588 153.487 178.296 153.487 179.196V186H151.831V179.43C151.831 178.758 151.705 178.284 151.453 178.008C151.201 177.732 150.829 177.594 150.337 177.594C149.833 177.594 149.389 177.738 149.005 178.026C148.621 178.314 148.261 178.728 147.925 179.268V186H146.269V176.514H147.691L147.835 177.918C148.171 177.414 148.585 177.018 149.077 176.73C149.581 176.442 150.133 176.298 150.733 176.298ZM159.389 176.298C160.037 176.298 160.619 176.388 161.135 176.568C161.651 176.748 162.143 177.018 162.611 177.378L161.909 178.422C161.477 178.146 161.063 177.942 160.667 177.81C160.283 177.678 159.875 177.612 159.443 177.612C158.903 177.612 158.477 177.726 158.165 177.954C157.853 178.17 157.697 178.47 157.697 178.854C157.697 179.238 157.841 179.538 158.129 179.754C158.429 179.97 158.963 180.18 159.731 180.384C160.787 180.648 161.573 181.008 162.089 181.464C162.617 181.92 162.881 182.544 162.881 183.336C162.881 184.272 162.515 184.986 161.783 185.478C161.063 185.97 160.181 186.216 159.137 186.216C157.697 186.216 156.503 185.802 155.555 184.974L156.437 183.966C157.241 184.578 158.129 184.884 159.101 184.884C159.725 184.884 160.217 184.758 160.577 184.506C160.949 184.242 161.135 183.888 161.135 183.444C161.135 183.12 161.069 182.862 160.937 182.67C160.805 182.466 160.577 182.292 160.253 182.148C159.929 181.992 159.455 181.83 158.831 181.662C157.823 181.398 157.091 181.044 156.635 180.6C156.191 180.156 155.969 179.592 155.969 178.908C155.969 178.416 156.113 177.972 156.401 177.576C156.701 177.168 157.109 176.856 157.625 176.64C158.153 176.412 158.741 176.298 159.389 176.298ZM173.545 176.298C174.877 176.298 175.909 176.742 176.641 177.63C177.385 178.518 177.757 179.724 177.757 181.248C177.757 182.232 177.589 183.102 177.253 183.858C176.917 184.602 176.431 185.184 175.795 185.604C175.159 186.012 174.403 186.216 173.527 186.216C172.195 186.216 171.157 185.772 170.413 184.884C169.669 183.996 169.297 182.79 169.297 181.266C169.297 180.282 169.465 179.418 169.801 178.674C170.137 177.918 170.623 177.336 171.259 176.928C171.895 176.508 172.657 176.298 173.545 176.298ZM173.545 177.63C171.901 177.63 171.079 178.842 171.079 181.266C171.079 183.678 171.895 184.884 173.527 184.884C175.159 184.884 175.975 183.672 175.975 181.248C175.975 178.836 175.165 177.63 173.545 177.63ZM183.715 173.832C183.211 173.832 182.851 173.946 182.635 174.174C182.419 174.39 182.311 174.732 182.311 175.2V176.514H184.615L184.435 177.792H182.311V186H180.655V177.792H178.963V176.514H180.655V175.218C180.655 174.402 180.913 173.748 181.429 173.256C181.957 172.752 182.689 172.5 183.625 172.5C184.057 172.5 184.441 172.542 184.777 172.626C185.125 172.698 185.497 172.818 185.893 172.986L185.371 174.192C184.831 173.952 184.279 173.832 183.715 173.832ZM202.464 186H200.808L200.376 180.402C200.196 178.206 200.094 176.52 200.07 175.344L197.388 184.596H195.786L192.96 175.326C192.96 176.826 192.882 178.56 192.726 180.528L192.312 186H190.692L191.718 173.598H194.022L196.632 182.616L199.116 173.598H201.438L202.464 186ZM211.686 183.786C211.686 184.17 211.752 184.458 211.884 184.65C212.016 184.83 212.214 184.968 212.478 185.064L212.1 186.216C211.608 186.156 211.212 186.018 210.912 185.802C210.612 185.586 210.39 185.25 210.246 184.794C209.61 185.742 208.668 186.216 207.42 186.216C206.484 186.216 205.746 185.952 205.206 185.424C204.666 184.896 204.396 184.206 204.396 183.354C204.396 182.346 204.756 181.572 205.476 181.032C206.208 180.492 207.24 180.222 208.572 180.222H210.03V179.52C210.03 178.848 209.868 178.368 209.544 178.08C209.22 177.792 208.722 177.648 208.05 177.648C207.354 177.648 206.502 177.816 205.494 178.152L205.08 176.946C206.256 176.514 207.348 176.298 208.356 176.298C209.472 176.298 210.306 176.574 210.858 177.126C211.41 177.666 211.686 178.44 211.686 179.448V183.786ZM207.798 184.974C208.746 184.974 209.49 184.482 210.03 183.498V181.32H208.788C207.036 181.32 206.16 181.968 206.16 183.264C206.16 183.828 206.298 184.254 206.574 184.542C206.85 184.83 207.258 184.974 207.798 184.974ZM219.209 176.298C219.545 176.298 219.857 176.334 220.145 176.406L219.839 178.026C219.551 177.954 219.275 177.918 219.011 177.918C218.423 177.918 217.949 178.134 217.589 178.566C217.229 178.998 216.947 179.67 216.743 180.582V186H215.087V176.514H216.509L216.671 178.44C216.923 177.732 217.265 177.198 217.697 176.838C218.129 176.478 218.633 176.298 219.209 176.298ZM224.341 176.298C224.989 176.298 225.571 176.388 226.087 176.568C226.603 176.748 227.095 177.018 227.563 177.378L226.861 178.422C226.429 178.146 226.015 177.942 225.619 177.81C225.235 177.678 224.827 177.612 224.395 177.612C223.855 177.612 223.429 177.726 223.117 177.954C222.805 178.17 222.649 178.47 222.649 178.854C222.649 179.238 222.793 179.538 223.081 179.754C223.381 179.97 223.915 180.18 224.683 180.384C225.739 180.648 226.525 181.008 227.041 181.464C227.569 181.92 227.833 182.544 227.833 183.336C227.833 184.272 227.467 184.986 226.735 185.478C226.015 185.97 225.133 186.216 224.089 186.216C222.649 186.216 221.455 185.802 220.507 184.974L221.389 183.966C222.193 184.578 223.081 184.884 224.053 184.884C224.677 184.884 225.169 184.758 225.529 184.506C225.901 184.242 226.087 183.888 226.087 183.444C226.087 183.12 226.021 182.862 225.889 182.67C225.757 182.466 225.529 182.292 225.205 182.148C224.881 181.992 224.407 181.83 223.783 181.662C222.775 181.398 222.043 181.044 221.587 180.6C221.143 180.156 220.921 179.592 220.921 178.908C220.921 178.416 221.065 177.972 221.353 177.576C221.653 177.168 222.061 176.856 222.577 176.64C223.105 176.412 223.693 176.298 224.341 176.298Z" fill="black"/>
<rect x="0.5" y="120.5" width="479" height="39" fill="#CAFFB7" stroke="black"/>
<path d="M25.814 133.958V146H24.158V135.722L21.35 137.432L20.63 136.262L24.356 133.958H25.814ZM29.9291 143.714C30.2891 143.714 30.5891 143.834 30.8291 144.074C31.0691 144.314 31.1891 144.608 31.1891 144.956C31.1891 145.304 31.0691 145.604 30.8291 145.856C30.5891 146.096 30.2891 146.216 29.9291 146.216C29.5811 146.216 29.2871 146.096 29.0471 145.856C28.8071 145.604 28.6871 145.304 28.6871 144.956C28.6871 144.608 28.8071 144.314 29.0471 144.074C29.2871 143.834 29.5811 143.714 29.9291 143.714ZM45.605 146V140.186H40.385V146H38.675V133.598H40.385V138.782H45.605V133.598H47.315V146H45.605ZM54.3834 136.298C55.7154 136.298 56.7474 136.742 57.4794 137.63C58.2234 138.518 58.5954 139.724 58.5954 141.248C58.5954 142.232 58.4274 143.102 58.0914 143.858C57.7554 144.602 57.2694 145.184 56.6334 145.604C55.9974 146.012 55.2414 146.216 54.3654 146.216C53.0334 146.216 51.9954 145.772 51.2514 144.884C50.5074 143.996 50.1354 142.79 50.1354 141.266C50.1354 140.282 50.3034 139.418 50.6394 138.674C50.9754 137.918 51.4614 137.336 52.0974 136.928C52.7334 136.508 53.4954 136.298 54.3834 136.298ZM54.3834 137.63C52.7394 137.63 51.9174 138.842 51.9174 141.266C51.9174 143.678 52.7334 144.884 54.3654 144.884C55.9974 144.884 56.8134 143.672 56.8134 141.248C56.8134 138.836 56.0034 137.63 54.3834 137.63ZM72.1671 136.514L70.0071 146H67.7571L66.1011 138.008L64.3911 146H62.1951L59.9811 136.514H61.6371L63.3471 144.848L65.2191 136.514H67.0731L68.8551 144.848L70.5831 136.514H72.1671ZM82.2191 133.832C81.7151 133.832 81.3551 133.946 81.1391 134.174C80.9231 134.39 80.8151 134.732 80.8151 135.2V136.514H83.1191L82.9391 137.792H80.8151V146H79.1591V137.792H77.4671V136.514H79.1591V135.218C79.1591 134.402 79.4171 133.748 79.9331 133.256C80.4611 132.752 81.1931 132.5 82.1291 132.5C82.5611 132.5 82.9451 132.542 83.2811 132.626C83.6291 132.698 84.0011 132.818 84.3971 132.986L83.8751 134.192C83.3351 133.952 82.7831 133.832 82.2191 133.832ZM91.0121 143.786C91.0121 144.17 91.0781 144.458 91.2101 144.65C91.3421 144.83 91.5401 144.968 91.8041 145.064L91.4261 146.216C90.9341 146.156 90.5381 146.018 90.2381 145.802C89.9381 145.586 89.7161 145.25 89.5721 144.794C88.9361 145.742 87.9941 146.216 86.7461 146.216C85.8101 146.216 85.0721 145.952 84.5321 145.424C83.9921 144.896 83.7221 144.206 83.7221 143.354C83.7221 142.346 84.0821 141.572 84.8021 141.032C85.5341 140.492 86.5661 140.222 87.8981 140.222H89.3561V139.52C89.3561 138.848 89.1941 138.368 88.8701 138.08C88.5461 137.792 88.0481 137.648 87.3761 137.648C86.6801 137.648 85.8281 137.816 84.8201 138.152L84.4061 136.946C85.5821 136.514 86.6741 136.298 87.6821 136.298C88.7981 136.298 89.6321 136.574 90.1841 137.126C90.7361 137.666 91.0121 138.44 91.0121 139.448V143.786ZM87.1241 144.974C88.0721 144.974 88.8161 144.482 89.3561 143.498V141.32H88.1141C86.3621 141.32 85.4861 141.968 85.4861 143.264C85.4861 143.828 85.6241 144.254 85.9001 144.542C86.1761 144.83 86.5841 144.974 87.1241 144.974ZM98.5351 136.298C98.8711 136.298 99.1831 136.334 99.4711 136.406L99.1651 138.026C98.8771 137.954 98.6011 137.918 98.3371 137.918C97.7491 137.918 97.2751 138.134 96.9151 138.566C96.5551 138.998 96.2731 139.67 96.0691 140.582V146H94.4131V136.514H95.8351L95.9971 138.44C96.2491 137.732 96.5911 137.198 97.0231 136.838C97.4551 136.478 97.9591 136.298 98.5351 136.298ZM112.51 143.786C112.51 144.17 112.576 144.458 112.708 144.65C112.84 144.83 113.038 144.968 113.302 145.064L112.924 146.216C112.432 146.156 112.036 146.018 111.736 145.802C111.436 145.586 111.214 145.25 111.07 144.794C110.434 145.742 109.492 146.216 108.244 146.216C107.308 146.216 106.57 145.952 106.03 145.424C105.49 144.896 105.22 144.206 105.22 143.354C105.22 142.346 105.58 141.572 106.3 141.032C107.032 140.492 108.064 140.222 109.396 140.222H110.854V139.52C110.854 138.848 110.692 138.368 110.368 138.08C110.044 137.792 109.546 137.648 108.874 137.648C108.178 137.648 107.326 137.816 106.318 138.152L105.904 136.946C107.08 136.514 108.172 136.298 109.18 136.298C110.296 136.298 111.13 136.574 111.682 137.126C112.234 137.666 112.51 138.44 112.51 139.448V143.786ZM108.622 144.974C109.57 144.974 110.314 144.482 110.854 143.498V141.32H109.612C107.86 141.32 106.984 141.968 106.984 143.264C106.984 143.828 107.122 144.254 107.398 144.542C107.674 144.83 108.082 144.974 108.622 144.974ZM126.659 136.514L124.499 146H122.249L120.593 138.008L118.883 146H116.687L114.473 136.514H116.129L117.839 144.848L119.711 136.514H121.565L123.347 144.848L125.075 136.514H126.659ZM134.905 143.786C134.905 144.17 134.971 144.458 135.103 144.65C135.235 144.83 135.433 144.968 135.697 145.064L135.319 146.216C134.827 146.156 134.431 146.018 134.131 145.802C133.831 145.586 133.609 145.25 133.465 144.794C132.829 145.742 131.887 146.216 130.639 146.216C129.703 146.216 128.965 145.952 128.425 145.424C127.885 144.896 127.615 144.206 127.615 143.354C127.615 142.346 127.975 141.572 128.695 141.032C129.427 140.492 130.459 140.222 131.791 140.222H133.249V139.52C133.249 138.848 133.087 138.368 132.763 138.08C132.439 137.792 131.941 137.648 131.269 137.648C130.573 137.648 129.721 137.816 128.713 138.152L128.299 136.946C129.475 136.514 130.567 136.298 131.575 136.298C132.691 136.298 133.525 136.574 134.077 137.126C134.629 137.666 134.905 138.44 134.905 139.448V143.786ZM131.017 144.974C131.965 144.974 132.709 144.482 133.249 143.498V141.32H132.007C130.255 141.32 129.379 141.968 129.379 143.264C129.379 143.828 129.517 144.254 129.793 144.542C130.069 144.83 130.477 144.974 131.017 144.974ZM141.84 146.054C141.468 147.158 140.946 148.028 140.274 148.664C139.614 149.312 138.666 149.702 137.43 149.834L137.25 148.538C137.874 148.43 138.372 148.274 138.744 148.07C139.116 147.866 139.41 147.602 139.626 147.278C139.854 146.966 140.064 146.54 140.256 146H139.698L136.512 136.514H138.276L140.814 144.794L143.298 136.514H145.008L141.84 146.054ZM154.887 133.832C154.383 133.832 154.023 133.946 153.807 134.174C153.591 134.39 153.483 134.732 153.483 135.2V136.514H155.787L155.607 137.792H153.483V146H151.827V137.792H150.135V136.514H151.827V135.218C151.827 134.402 152.085 133.748 152.601 133.256C153.129 132.752 153.861 132.5 154.797 132.5C155.229 132.5 155.613 132.542 155.949 132.626C156.297 132.698 156.669 132.818 157.065 132.986L156.543 134.192C156.003 133.952 155.451 133.832 154.887 133.832ZM161.816 136.298C162.152 136.298 162.464 136.334 162.752 136.406L162.446 138.026C162.158 137.954 161.882 137.918 161.618 137.918C161.03 137.918 160.556 138.134 160.196 138.566C159.836 138.998 159.554 139.67 159.35 140.582V146H157.694V136.514H159.116L159.278 138.44C159.53 137.732 159.872 137.198 160.304 136.838C160.736 136.478 161.24 136.298 161.816 136.298ZM167.657 136.298C168.989 136.298 170.021 136.742 170.753 137.63C171.497 138.518 171.869 139.724 171.869 141.248C171.869 142.232 171.701 143.102 171.365 143.858C171.029 144.602 170.543 145.184 169.907 145.604C169.271 146.012 168.515 146.216 167.639 146.216C166.307 146.216 165.269 145.772 164.525 144.884C163.781 143.996 163.409 142.79 163.409 141.266C163.409 140.282 163.577 139.418 163.913 138.674C164.249 137.918 164.735 137.336 165.371 136.928C166.007 136.508 166.769 136.298 167.657 136.298ZM167.657 137.63C166.013 137.63 165.191 138.842 165.191 141.266C165.191 143.678 166.007 144.884 167.639 144.884C169.271 144.884 170.087 143.672 170.087 141.248C170.087 138.836 169.277 137.63 167.657 137.63ZM184.127 136.298C184.907 136.298 185.531 136.562 185.999 137.09C186.467 137.606 186.701 138.308 186.701 139.196V146H185.045V139.43C185.045 138.206 184.601 137.594 183.713 137.594C183.245 137.594 182.849 137.732 182.525 138.008C182.201 138.272 181.853 138.692 181.481 139.268V146H179.825V139.43C179.825 138.206 179.381 137.594 178.493 137.594C178.013 137.594 177.611 137.732 177.287 138.008C176.963 138.284 176.621 138.704 176.261 139.268V146H174.605V136.514H176.027L176.171 137.9C176.879 136.832 177.791 136.298 178.907 136.298C179.495 136.298 179.993 136.448 180.401 136.748C180.821 137.048 181.121 137.468 181.301 138.008C181.673 137.456 182.081 137.036 182.525 136.748C182.981 136.448 183.515 136.298 184.127 136.298ZM201.606 133.598L201.408 134.966H196.602V139.016H200.778V140.384H196.602V144.632H201.75V146H194.892V133.598H201.606ZM210.614 143.786C210.614 144.17 210.68 144.458 210.812 144.65C210.944 144.83 211.142 144.968 211.406 145.064L211.028 146.216C210.536 146.156 210.14 146.018 209.84 145.802C209.54 145.586 209.318 145.25 209.174 144.794C208.538 145.742 207.596 146.216 206.348 146.216C205.412 146.216 204.674 145.952 204.134 145.424C203.594 144.896 203.324 144.206 203.324 143.354C203.324 142.346 203.684 141.572 204.404 141.032C205.136 140.492 206.168 140.222 207.5 140.222H208.958V139.52C208.958 138.848 208.796 138.368 208.472 138.08C208.148 137.792 207.65 137.648 206.978 137.648C206.282 137.648 205.43 137.816 204.422 138.152L204.008 136.946C205.184 136.514 206.276 136.298 207.284 136.298C208.4 136.298 209.234 136.574 209.786 137.126C210.338 137.666 210.614 138.44 210.614 139.448V143.786ZM206.726 144.974C207.674 144.974 208.418 144.482 208.958 143.498V141.32H207.716C205.964 141.32 205.088 141.968 205.088 143.264C205.088 143.828 205.226 144.254 205.502 144.542C205.778 144.83 206.186 144.974 206.726 144.974ZM218.137 136.298C218.473 136.298 218.785 136.334 219.073 136.406L218.767 138.026C218.479 137.954 218.203 137.918 217.939 137.918C217.351 137.918 216.877 138.134 216.517 138.566C216.157 138.998 215.875 139.67 215.671 140.582V146H214.015V136.514H215.437L215.599 138.44C215.851 137.732 216.193 137.198 216.625 136.838C217.057 136.478 217.561 136.298 218.137 136.298ZM225.746 145.568C225.122 146 224.414 146.216 223.622 146.216C222.818 146.216 222.188 145.988 221.732 145.532C221.288 145.064 221.066 144.392 221.066 143.516V137.792H219.41V136.514H221.066V134.372L222.722 134.174V136.514H224.972L224.792 137.792H222.722V143.444C222.722 143.936 222.806 144.296 222.974 144.524C223.154 144.74 223.448 144.848 223.856 144.848C224.228 144.848 224.648 144.722 225.116 144.47L225.746 145.568ZM231.926 136.298C232.79 136.298 233.462 136.556 233.942 137.072C234.434 137.588 234.68 138.296 234.68 139.196V146H233.024V139.43C233.024 138.758 232.892 138.284 232.628 138.008C232.376 137.732 232.004 137.594 231.512 137.594C231.02 137.594 230.582 137.738 230.198 138.026C229.814 138.314 229.454 138.722 229.118 139.25V146H227.462V132.716L229.118 132.536V137.828C229.862 136.808 230.798 136.298 231.926 136.298ZM244.429 136.514V146H242.773V136.514H244.429ZM243.583 131.96C243.931 131.96 244.213 132.068 244.429 132.284C244.645 132.5 244.753 132.77 244.753 133.094C244.753 133.418 244.645 133.688 244.429 133.904C244.213 134.108 243.931 134.21 243.583 134.21C243.247 134.21 242.971 134.108 242.755 133.904C242.539 133.688 242.431 133.418 242.431 133.094C242.431 132.77 242.539 132.5 242.755 132.284C242.971 132.068 243.247 131.96 243.583 131.96ZM250.427 136.298C251.075 136.298 251.657 136.388 252.173 136.568C252.689 136.748 253.181 137.018 253.649 137.378L252.947 138.422C252.515 138.146 252.101 137.942 251.705 137.81C251.321 137.678 250.913 137.612 250.481 137.612C249.941 137.612 249.515 137.726 249.203 137.954C248.891 138.17 248.735 138.47 248.735 138.854C248.735 139.238 248.879 139.538 249.167 139.754C249.467 139.97 250.001 140.18 250.769 140.384C251.825 140.648 252.611 141.008 253.127 141.464C253.655 141.92 253.919 142.544 253.919 143.336C253.919 144.272 253.553 144.986 252.821 145.478C252.101 145.97 251.219 146.216 250.175 146.216C248.735 146.216 247.541 145.802 246.593 144.974L247.475 143.966C248.279 144.578 249.167 144.884 250.139 144.884C250.763 144.884 251.255 144.758 251.615 144.506C251.987 144.242 252.173 143.888 252.173 143.444C252.173 143.12 252.107 142.862 251.975 142.67C251.843 142.466 251.615 142.292 251.291 142.148C250.967 141.992 250.493 141.83 249.869 141.662C248.861 141.398 248.129 141.044 247.673 140.6C247.229 140.156 247.007 139.592 247.007 138.908C247.007 138.416 247.151 137.972 247.439 137.576C247.739 137.168 248.147 136.856 248.663 136.64C249.191 136.412 249.779 136.298 250.427 136.298ZM272.197 146H270.541L270.109 140.402C269.929 138.206 269.827 136.52 269.803 135.344L267.121 144.596H265.519L262.693 135.326C262.693 136.826 262.615 138.56 262.459 140.528L262.045 146H260.425L261.451 133.598H263.755L266.365 142.616L268.849 133.598H271.171L272.197 146ZM278.592 136.298C279.924 136.298 280.956 136.742 281.688 137.63C282.432 138.518 282.804 139.724 282.804 141.248C282.804 142.232 282.636 143.102 282.3 143.858C281.964 144.602 281.478 145.184 280.842 145.604C280.206 146.012 279.45 146.216 278.574 146.216C277.242 146.216 276.204 145.772 275.46 144.884C274.716 143.996 274.344 142.79 274.344 141.266C274.344 140.282 274.512 139.418 274.848 138.674C275.184 137.918 275.67 137.336 276.306 136.928C276.942 136.508 277.704 136.298 278.592 136.298ZM278.592 137.63C276.948 137.63 276.126 138.842 276.126 141.266C276.126 143.678 276.942 144.884 278.574 144.884C280.206 144.884 281.022 143.672 281.022 141.248C281.022 138.836 280.212 137.63 278.592 137.63ZM289.104 136.298C290.436 136.298 291.468 136.742 292.2 137.63C292.944 138.518 293.316 139.724 293.316 141.248C293.316 142.232 293.148 143.102 292.812 143.858C292.476 144.602 291.99 145.184 291.354 145.604C290.718 146.012 289.962 146.216 289.086 146.216C287.754 146.216 286.716 145.772 285.972 144.884C285.228 143.996 284.856 142.79 284.856 141.266C284.856 140.282 285.024 139.418 285.36 138.674C285.696 137.918 286.182 137.336 286.818 136.928C287.454 136.508 288.216 136.298 289.104 136.298ZM289.104 137.63C287.46 137.63 286.638 138.842 286.638 141.266C286.638 143.678 287.454 144.884 289.086 144.884C290.718 144.884 291.534 143.672 291.534 141.248C291.534 138.836 290.724 137.63 289.104 137.63ZM300.516 136.298C301.38 136.298 302.052 136.556 302.532 137.072C303.024 137.588 303.27 138.296 303.27 139.196V146H301.614V139.43C301.614 138.758 301.488 138.284 301.236 138.008C300.984 137.732 300.612 137.594 300.12 137.594C299.616 137.594 299.172 137.738 298.788 138.026C298.404 138.314 298.044 138.728 297.708 139.268V146H296.052V136.514H297.474L297.618 137.918C297.954 137.414 298.368 137.018 298.86 136.73C299.364 136.442 299.916 136.298 300.516 136.298Z" fill="black"/>
<rect x="0.5" y="40.5" width="479" height="79" fill="white" stroke="black"/>
<path d="M25.238 76.658V79.358H27.866V80.726H25.238V83.408H23.726V80.726H21.116V79.358H23.726V76.658H25.238ZM42.1521 86L41.2161 82.886H36.5181L35.5821 86H33.8541L37.8321 73.598H39.9921L43.9521 86H42.1521ZM36.9321 81.5H40.8021L38.8761 75.02L36.9321 81.5ZM53.1185 72.698V86H51.6605L51.4985 84.686C51.1865 85.166 50.7965 85.544 50.3285 85.82C49.8605 86.084 49.3385 86.216 48.7625 86.216C47.6345 86.216 46.7525 85.772 46.1165 84.884C45.4925 83.996 45.1805 82.802 45.1805 81.302C45.1805 80.33 45.3305 79.466 45.6305 78.71C45.9305 77.954 46.3625 77.366 46.9265 76.946C47.4905 76.514 48.1505 76.298 48.9065 76.298C49.8785 76.298 50.7305 76.688 51.4625 77.468V72.5L53.1185 72.698ZM49.1225 84.902C49.6265 84.902 50.0585 84.788 50.4185 84.56C50.7785 84.32 51.1265 83.966 51.4625 83.498V78.854C51.1505 78.446 50.8145 78.14 50.4545 77.936C50.1065 77.72 49.7105 77.612 49.2665 77.612C48.5345 77.612 47.9645 77.918 47.5565 78.53C47.1605 79.142 46.9625 80.054 46.9625 81.266C46.9625 82.49 47.1485 83.402 47.5205 84.002C47.8925 84.602 48.4265 84.902 49.1225 84.902ZM63.8763 72.698V86H62.4183L62.2563 84.686C61.9443 85.166 61.5543 85.544 61.0863 85.82C60.6183 86.084 60.0963 86.216 59.5203 86.216C58.3923 86.216 57.5103 85.772 56.8743 84.884C56.2503 83.996 55.9383 82.802 55.9383 81.302C55.9383 80.33 56.0883 79.466 56.3883 78.71C56.6883 77.954 57.1203 77.366 57.6843 76.946C58.2483 76.514 58.9083 76.298 59.6643 76.298C60.6363 76.298 61.4883 76.688 62.2203 77.468V72.5L63.8763 72.698ZM59.8803 84.902C60.3843 84.902 60.8163 84.788 61.1763 84.56C61.5363 84.32 61.8843 83.966 62.2203 83.498V78.854C61.9083 78.446 61.5723 78.14 61.2123 77.936C60.8643 77.72 60.4683 77.612 60.0243 77.612C59.2923 77.612 58.7223 77.918 58.3143 78.53C57.9183 79.142 57.7203 80.054 57.7203 81.266C57.7203 82.49 57.9063 83.402 58.2783 84.002C58.6503 84.602 59.1843 84.902 59.8803 84.902ZM78.4438 83.786C78.4438 84.17 78.5098 84.458 78.6418 84.65C78.7738 84.83 78.9718 84.968 79.2358 85.064L78.8578 86.216C78.3658 86.156 77.9698 86.018 77.6698 85.802C77.3698 85.586 77.1478 85.25 77.0038 84.794C76.3678 85.742 75.4258 86.216 74.1778 86.216C73.2418 86.216 72.5038 85.952 71.9638 85.424C71.4238 84.896 71.1538 84.206 71.1538 83.354C71.1538 82.346 71.5138 81.572 72.2338 81.032C72.9658 80.492 73.9978 80.222 75.3298 80.222H76.7878V79.52C76.7878 78.848 76.6258 78.368 76.3018 78.08C75.9778 77.792 75.4798 77.648 74.8078 77.648C74.1118 77.648 73.2598 77.816 72.2518 78.152L71.8378 76.946C73.0138 76.514 74.1058 76.298 75.1138 76.298C76.2298 76.298 77.0638 76.574 77.6158 77.126C78.1678 77.666 78.4438 78.44 78.4438 79.448V83.786ZM74.5558 84.974C75.5038 84.974 76.2478 84.482 76.7878 83.498V81.32H75.5458C73.7938 81.32 72.9178 81.968 72.9178 83.264C72.9178 83.828 73.0558 84.254 73.3318 84.542C73.6078 84.83 74.0158 84.974 74.5558 84.974ZM86.3088 76.298C87.1728 76.298 87.8448 76.556 88.3248 77.072C88.8168 77.588 89.0628 78.296 89.0628 79.196V86H87.4068V79.43C87.4068 78.758 87.2808 78.284 87.0288 78.008C86.7768 77.732 86.4048 77.594 85.9128 77.594C85.4088 77.594 84.9648 77.738 84.5808 78.026C84.1968 78.314 83.8368 78.728 83.5008 79.268V86H81.8448V76.514H83.2668L83.4108 77.918C83.7468 77.414 84.1608 77.018 84.6528 76.73C85.1568 76.442 85.7088 76.298 86.3088 76.298ZM95.9556 76.298C97.2876 76.298 98.3196 76.742 99.0516 77.63C99.7956 78.518 100.168 79.724 100.168 81.248C100.168 82.232 99.9996 83.102 99.6636 83.858C99.3276 84.602 98.8416 85.184 98.2056 85.604C97.5696 86.012 96.8136 86.216 95.9376 86.216C94.6056 86.216 93.5676 85.772 92.8236 84.884C92.0796 83.996 91.7076 82.79 91.7076 81.266C91.7076 80.282 91.8756 79.418 92.2116 78.674C92.5476 77.918 93.0336 77.336 93.6696 76.928C94.3056 76.508 95.0676 76.298 95.9556 76.298ZM95.9556 77.63C94.3116 77.63 93.4896 78.842 93.4896 81.266C93.4896 83.678 94.3056 84.884 95.9376 84.884C97.5696 84.884 98.3856 83.672 98.3856 81.248C98.3856 78.836 97.5756 77.63 95.9556 77.63ZM107.691 85.568C107.067 86 106.359 86.216 105.567 86.216C104.763 86.216 104.133 85.988 103.677 85.532C103.233 85.064 103.011 84.392 103.011 83.516V77.792H101.355V76.514H103.011V74.372L104.667 74.174V76.514H106.917L106.737 77.792H104.667V83.444C104.667 83.936 104.751 84.296 104.919 84.524C105.099 84.74 105.393 84.848 105.801 84.848C106.173 84.848 106.593 84.722 107.061 84.47L107.691 85.568ZM113.871 76.298C114.735 76.298 115.407 76.556 115.887 77.072C116.379 77.588 116.625 78.296 116.625 79.196V86H114.969V79.43C114.969 78.758 114.837 78.284 114.573 78.008C114.321 77.732 113.949 77.594 113.457 77.594C112.965 77.594 112.527 77.738 112.143 78.026C111.759 78.314 111.399 78.722 111.063 79.25V86H109.407V72.716L111.063 72.536V77.828C111.807 76.808 112.743 76.298 113.871 76.298ZM127.118 80.978C127.118 81.254 127.106 81.536 127.082 81.824H121.034C121.106 82.868 121.37 83.636 121.826 84.128C122.282 84.62 122.87 84.866 123.59 84.866C124.046 84.866 124.466 84.8 124.85 84.668C125.234 84.536 125.636 84.326 126.056 84.038L126.776 85.028C125.768 85.82 124.664 86.216 123.464 86.216C122.144 86.216 121.112 85.784 120.368 84.92C119.636 84.056 119.27 82.868 119.27 81.356C119.27 80.372 119.426 79.502 119.738 78.746C120.062 77.978 120.518 77.378 121.106 76.946C121.706 76.514 122.408 76.298 123.212 76.298C124.472 76.298 125.438 76.712 126.11 77.54C126.782 78.368 127.118 79.514 127.118 80.978ZM125.48 80.492C125.48 79.556 125.294 78.842 124.922 78.35C124.55 77.858 123.992 77.612 123.248 77.612C121.892 77.612 121.154 78.608 121.034 80.6H125.48V80.492ZM133.885 76.298C134.221 76.298 134.533 76.334 134.821 76.406L134.515 78.026C134.227 77.954 133.951 77.918 133.687 77.918C133.099 77.918 132.625 78.134 132.265 78.566C131.905 78.998 131.623 79.67 131.419 80.582V86H129.763V76.514H131.185L131.347 78.44C131.599 77.732 131.941 77.198 132.373 76.838C132.805 76.478 133.309 76.298 133.885 76.298ZM148.814 76.514V89.834L147.158 89.636V84.74C146.846 85.208 146.456 85.574 145.988 85.838C145.532 86.09 145.022 86.216 144.458 86.216C143.33 86.216 142.448 85.772 141.812 84.884C141.188 83.996 140.876 82.802 140.876 81.302C140.876 80.33 141.026 79.466 141.326 78.71C141.626 77.954 142.058 77.366 142.622 76.946C143.186 76.514 143.846 76.298 144.602 76.298C145.61 76.298 146.498 76.724 147.266 77.576L147.392 76.514H148.814ZM144.818 84.902C145.322 84.902 145.754 84.788 146.114 84.56C146.474 84.32 146.822 83.966 147.158 83.498V78.854C146.846 78.446 146.51 78.14 146.15 77.936C145.802 77.72 145.406 77.612 144.962 77.612C144.23 77.612 143.66 77.918 143.252 78.53C142.856 79.142 142.658 80.054 142.658 81.266C142.658 82.49 142.844 83.402 143.216 84.002C143.588 84.602 144.122 84.902 144.818 84.902ZM159.284 86H157.862L157.736 84.524C157.376 85.112 156.962 85.544 156.494 85.82C156.026 86.084 155.456 86.216 154.784 86.216C153.956 86.216 153.308 85.964 152.84 85.46C152.372 84.956 152.138 84.242 152.138 83.318V76.514H153.794V83.138C153.794 83.786 153.908 84.248 154.136 84.524C154.364 84.788 154.736 84.92 155.252 84.92C156.176 84.92 156.968 84.374 157.628 83.282V76.514H159.284V86ZM169.868 80.978C169.868 81.254 169.856 81.536 169.832 81.824H163.784C163.856 82.868 164.12 83.636 164.576 84.128C165.032 84.62 165.62 84.866 166.34 84.866C166.796 84.866 167.216 84.8 167.6 84.668C167.984 84.536 168.386 84.326 168.806 84.038L169.526 85.028C168.518 85.82 167.414 86.216 166.214 86.216C164.894 86.216 163.862 85.784 163.118 84.92C162.386 84.056 162.02 82.868 162.02 81.356C162.02 80.372 162.176 79.502 162.488 78.746C162.812 77.978 163.268 77.378 163.856 76.946C164.456 76.514 165.158 76.298 165.962 76.298C167.222 76.298 168.188 76.712 168.86 77.54C169.532 78.368 169.868 79.514 169.868 80.978ZM168.23 80.492C168.23 79.556 168.044 78.842 167.672 78.35C167.3 77.858 166.742 77.612 165.998 77.612C164.642 77.612 163.904 78.608 163.784 80.6H168.23V80.492ZM175.087 76.298C175.735 76.298 176.317 76.388 176.833 76.568C177.349 76.748 177.841 77.018 178.309 77.378L177.607 78.422C177.175 78.146 176.761 77.942 176.365 77.81C175.981 77.678 175.573 77.612 175.141 77.612C174.601 77.612 174.175 77.726 173.863 77.954C173.551 78.17 173.395 78.47 173.395 78.854C173.395 79.238 173.539 79.538 173.827 79.754C174.127 79.97 174.661 80.18 175.429 80.384C176.485 80.648 177.271 81.008 177.787 81.464C178.315 81.92 178.579 82.544 178.579 83.336C178.579 84.272 178.213 84.986 177.481 85.478C176.761 85.97 175.879 86.216 174.835 86.216C173.395 86.216 172.201 85.802 171.253 84.974L172.135 83.966C172.939 84.578 173.827 84.884 174.799 84.884C175.423 84.884 175.915 84.758 176.275 84.506C176.647 84.242 176.833 83.888 176.833 83.444C176.833 83.12 176.767 82.862 176.635 82.67C176.503 82.466 176.275 82.292 175.951 82.148C175.627 81.992 175.153 81.83 174.529 81.662C173.521 81.398 172.789 81.044 172.333 80.6C171.889 80.156 171.667 79.592 171.667 78.908C171.667 78.416 171.811 77.972 172.099 77.576C172.399 77.168 172.807 76.856 173.323 76.64C173.851 76.412 174.439 76.298 175.087 76.298ZM185.703 85.568C185.079 86 184.371 86.216 183.579 86.216C182.775 86.216 182.145 85.988 181.689 85.532C181.245 85.064 181.023 84.392 181.023 83.516V77.792H179.367V76.514H181.023V74.372L182.679 74.174V76.514H184.929L184.749 77.792H182.679V83.444C182.679 83.936 182.763 84.296 182.931 84.524C183.111 84.74 183.405 84.848 183.813 84.848C184.185 84.848 184.605 84.722 185.073 84.47L185.703 85.568ZM189.075 76.514V86H187.419V76.514H189.075ZM188.229 71.96C188.577 71.96 188.859 72.068 189.075 72.284C189.291 72.5 189.399 72.77 189.399 73.094C189.399 73.418 189.291 73.688 189.075 73.904C188.859 74.108 188.577 74.21 188.229 74.21C187.893 74.21 187.617 74.108 187.401 73.904C187.185 73.688 187.077 73.418 187.077 73.094C187.077 72.77 187.185 72.5 187.401 72.284C187.617 72.068 187.893 71.96 188.229 71.96ZM196.063 76.298C197.395 76.298 198.427 76.742 199.159 77.63C199.903 78.518 200.275 79.724 200.275 81.248C200.275 82.232 200.107 83.102 199.771 83.858C199.435 84.602 198.949 85.184 198.313 85.604C197.677 86.012 196.921 86.216 196.045 86.216C194.713 86.216 193.675 85.772 192.931 84.884C192.187 83.996 191.815 82.79 191.815 81.266C191.815 80.282 191.983 79.418 192.319 78.674C192.655 77.918 193.141 77.336 193.777 76.928C194.413 76.508 195.175 76.298 196.063 76.298ZM196.063 77.63C194.419 77.63 193.597 78.842 193.597 81.266C193.597 83.678 194.413 84.884 196.045 84.884C197.677 84.884 198.493 83.672 198.493 81.248C198.493 78.836 197.683 77.63 196.063 77.63ZM207.475 76.298C208.339 76.298 209.011 76.556 209.491 77.072C209.983 77.588 210.229 78.296 210.229 79.196V86H208.573V79.43C208.573 78.758 208.447 78.284 208.195 78.008C207.943 77.732 207.571 77.594 207.079 77.594C206.575 77.594 206.131 77.738 205.747 78.026C205.363 78.314 205.003 78.728 204.667 79.268V86H203.011V76.514H204.433L204.577 77.918C204.913 77.414 205.327 77.018 205.819 76.73C206.323 76.442 206.875 76.298 207.475 76.298Z" fill="#6C6C6C"/>
<rect x="0.5" y="0.5" width="479" height="39" fill="white" stroke="black"/>
<path d="M164.577 13.598C166.113 13.598 167.301 13.922 168.141 14.57C168.981 15.206 169.401 16.16 169.401 17.432C169.401 18.788 168.963 19.796 168.087 20.456C167.211 21.116 166.047 21.446 164.595 21.446H163.029V26H161.319V13.598H164.577ZM164.523 20.096C165.519 20.096 166.275 19.904 166.791 19.52C167.319 19.136 167.583 18.446 167.583 17.45C167.583 16.562 167.319 15.92 166.791 15.524C166.275 15.128 165.531 14.93 164.559 14.93H163.029V20.096H164.523ZM175.8 16.298C176.664 16.298 177.336 16.556 177.816 17.072C178.308 17.588 178.554 18.296 178.554 19.196V26H176.898V19.43C176.898 18.758 176.766 18.284 176.502 18.008C176.25 17.732 175.878 17.594 175.386 17.594C174.894 17.594 174.456 17.738 174.072 18.026C173.688 18.314 173.328 18.722 172.992 19.25V26H171.336V12.716L172.992 12.536V17.828C173.736 16.808 174.672 16.298 175.8 16.298ZM185.558 26.054C185.186 27.158 184.664 28.028 183.992 28.664C183.332 29.312 182.384 29.702 181.148 29.834L180.968 28.538C181.592 28.43 182.09 28.274 182.462 28.07C182.834 27.866 183.128 27.602 183.344 27.278C183.572 26.966 183.782 26.54 183.974 26H183.416L180.23 16.514H181.994L184.532 24.794L187.016 16.514H188.726L185.558 26.054ZM193.07 16.298C193.718 16.298 194.3 16.388 194.816 16.568C195.332 16.748 195.824 17.018 196.292 17.378L195.59 18.422C195.158 18.146 194.744 17.942 194.348 17.81C193.964 17.678 193.556 17.612 193.124 17.612C192.584 17.612 192.158 17.726 191.846 17.954C191.534 18.17 191.378 18.47 191.378 18.854C191.378 19.238 191.522 19.538 191.81 19.754C192.11 19.97 192.644 20.18 193.412 20.384C194.468 20.648 195.254 21.008 195.77 21.464C196.298 21.92 196.562 22.544 196.562 23.336C196.562 24.272 196.196 24.986 195.464 25.478C194.744 25.97 193.862 26.216 192.818 26.216C191.378 26.216 190.184 25.802 189.236 24.974L190.118 23.966C190.922 24.578 191.81 24.884 192.782 24.884C193.406 24.884 193.898 24.758 194.258 24.506C194.63 24.242 194.816 23.888 194.816 23.444C194.816 23.12 194.75 22.862 194.618 22.67C194.486 22.466 194.258 22.292 193.934 22.148C193.61 21.992 193.136 21.83 192.512 21.662C191.504 21.398 190.772 21.044 190.316 20.6C189.872 20.156 189.65 19.592 189.65 18.908C189.65 18.416 189.794 17.972 190.082 17.576C190.382 17.168 190.79 16.856 191.306 16.64C191.834 16.412 192.422 16.298 193.07 16.298ZM200.554 16.514V26H198.898V16.514H200.554ZM199.708 11.96C200.056 11.96 200.338 12.068 200.554 12.284C200.77 12.5 200.878 12.77 200.878 13.094C200.878 13.418 200.77 13.688 200.554 13.904C200.338 14.108 200.056 14.21 199.708 14.21C199.372 14.21 199.096 14.108 198.88 13.904C198.664 13.688 198.556 13.418 198.556 13.094C198.556 12.77 198.664 12.5 198.88 12.284C199.096 12.068 199.372 11.96 199.708 11.96ZM207.435 16.298C207.999 16.298 208.515 16.382 208.983 16.55C209.451 16.706 209.901 16.964 210.333 17.324L209.541 18.368C209.205 18.128 208.875 17.954 208.551 17.846C208.239 17.726 207.891 17.666 207.507 17.666C206.739 17.666 206.139 17.972 205.707 18.584C205.287 19.196 205.077 20.102 205.077 21.302C205.077 22.502 205.287 23.39 205.707 23.966C206.127 24.53 206.727 24.812 207.507 24.812C207.879 24.812 208.221 24.758 208.533 24.65C208.845 24.53 209.193 24.344 209.577 24.092L210.333 25.172C209.469 25.868 208.503 26.216 207.435 26.216C206.151 26.216 205.137 25.784 204.393 24.92C203.661 24.056 203.295 22.862 203.295 21.338C203.295 20.33 203.463 19.448 203.799 18.692C204.135 17.936 204.609 17.348 205.221 16.928C205.845 16.508 206.583 16.298 207.435 16.298ZM215.148 16.298C215.796 16.298 216.378 16.388 216.894 16.568C217.41 16.748 217.902 17.018 218.37 17.378L217.668 18.422C217.236 18.146 216.822 17.942 216.426 17.81C216.042 17.678 215.634 17.612 215.202 17.612C214.662 17.612 214.236 17.726 213.924 17.954C213.612 18.17 213.456 18.47 213.456 18.854C213.456 19.238 213.6 19.538 213.888 19.754C214.188 19.97 214.722 20.18 215.49 20.384C216.546 20.648 217.332 21.008 217.848 21.464C218.376 21.92 218.64 22.544 218.64 23.336C218.64 24.272 218.274 24.986 217.542 25.478C216.822 25.97 215.94 26.216 214.896 26.216C213.456 26.216 212.262 25.802 211.314 24.974L212.196 23.966C213 24.578 213.888 24.884 214.86 24.884C215.484 24.884 215.976 24.758 216.336 24.506C216.708 24.242 216.894 23.888 216.894 23.444C216.894 23.12 216.828 22.862 216.696 22.67C216.564 22.466 216.336 22.292 216.012 22.148C215.688 21.992 215.214 21.83 214.59 21.662C213.582 21.398 212.85 21.044 212.394 20.6C211.95 20.156 211.728 19.592 211.728 18.908C211.728 18.416 211.872 17.972 212.16 17.576C212.46 17.168 212.868 16.856 213.384 16.64C213.912 16.412 214.5 16.298 215.148 16.298ZM221.409 23.714C221.769 23.714 222.069 23.834 222.309 24.074C222.549 24.314 222.669 24.608 222.669 24.956C222.669 25.304 222.549 25.604 222.309 25.856C222.069 26.096 221.769 26.216 221.409 26.216C221.061 26.216 220.767 26.096 220.527 25.856C220.287 25.604 220.167 25.304 220.167 24.956C220.167 24.608 220.287 24.314 220.527 24.074C220.767 23.834 221.061 23.714 221.409 23.714ZM221.409 17.09C221.769 17.09 222.069 17.21 222.309 17.45C222.549 17.69 222.669 17.984 222.669 18.332C222.669 18.68 222.549 18.98 222.309 19.232C222.069 19.472 221.769 19.592 221.409 19.592C221.061 19.592 220.767 19.472 220.527 19.232C220.287 18.98 220.167 18.68 220.167 18.332C220.167 17.984 220.287 17.69 220.527 17.45C220.767 17.21 221.061 17.09 221.409 17.09ZM241.524 26L240.588 22.886H235.89L234.954 26H233.226L237.204 13.598H239.364L243.324 26H241.524ZM236.304 21.5H240.174L238.248 15.02L236.304 21.5ZM247.721 16.298C248.369 16.298 248.951 16.388 249.467 16.568C249.983 16.748 250.475 17.018 250.943 17.378L250.241 18.422C249.809 18.146 249.395 17.942 248.999 17.81C248.615 17.678 248.207 17.612 247.775 17.612C247.235 17.612 246.809 17.726 246.497 17.954C246.185 18.17 246.029 18.47 246.029 18.854C246.029 19.238 246.173 19.538 246.461 19.754C246.761 19.97 247.295 20.18 248.063 20.384C249.119 20.648 249.905 21.008 250.421 21.464C250.949 21.92 251.213 22.544 251.213 23.336C251.213 24.272 250.847 24.986 250.115 25.478C249.395 25.97 248.513 26.216 247.469 26.216C246.029 26.216 244.835 25.802 243.887 24.974L244.769 23.966C245.573 24.578 246.461 24.884 247.433 24.884C248.057 24.884 248.549 24.758 248.909 24.506C249.281 24.242 249.467 23.888 249.467 23.444C249.467 23.12 249.401 22.862 249.269 22.67C249.137 22.466 248.909 22.292 248.585 22.148C248.261 21.992 247.787 21.83 247.163 21.662C246.155 21.398 245.423 21.044 244.967 20.6C244.523 20.156 244.301 19.592 244.301 18.908C244.301 18.416 244.445 17.972 244.733 17.576C245.033 17.168 245.441 16.856 245.957 16.64C246.485 16.412 247.073 16.298 247.721 16.298ZM258.337 25.568C257.713 26 257.005 26.216 256.213 26.216C255.409 26.216 254.779 25.988 254.323 25.532C253.879 25.064 253.657 24.392 253.657 23.516V17.792H252.001V16.514H253.657V14.372L255.313 14.174V16.514H257.563L257.383 17.792H255.313V23.444C255.313 23.936 255.397 24.296 255.565 24.524C255.745 24.74 256.039 24.848 256.447 24.848C256.819 24.848 257.239 24.722 257.707 24.47L258.337 25.568ZM264.175 16.298C264.511 16.298 264.823 16.334 265.111 16.406L264.805 18.026C264.517 17.954 264.241 17.918 263.977 17.918C263.389 17.918 262.915 18.134 262.555 18.566C262.195 18.998 261.913 19.67 261.709 20.582V26H260.053V16.514H261.475L261.637 18.44C261.889 17.732 262.231 17.198 262.663 16.838C263.095 16.478 263.599 16.298 264.175 16.298ZM270.015 16.298C271.347 16.298 272.379 16.742 273.111 17.63C273.855 18.518 274.227 19.724 274.227 21.248C274.227 22.232 274.059 23.102 273.723 23.858C273.387 24.602 272.901 25.184 272.265 25.604C271.629 26.012 270.873 26.216 269.997 26.216C268.665 26.216 267.627 25.772 266.883 24.884C266.139 23.996 265.767 22.79 265.767 21.266C265.767 20.282 265.935 19.418 266.271 18.674C266.607 17.918 267.093 17.336 267.729 16.928C268.365 16.508 269.127 16.298 270.015 16.298ZM270.015 17.63C268.371 17.63 267.549 18.842 267.549 21.266C267.549 23.678 268.365 24.884 269.997 24.884C271.629 24.884 272.445 23.672 272.445 21.248C272.445 18.836 271.635 17.63 270.015 17.63ZM281.427 16.298C282.291 16.298 282.963 16.556 283.443 17.072C283.935 17.588 284.181 18.296 284.181 19.196V26H282.525V19.43C282.525 18.758 282.399 18.284 282.147 18.008C281.895 17.732 281.523 17.594 281.031 17.594C280.527 17.594 280.083 17.738 279.699 18.026C279.315 18.314 278.955 18.728 278.619 19.268V26H276.963V16.514H278.385L278.529 17.918C278.865 17.414 279.279 17.018 279.771 16.73C280.275 16.442 280.827 16.298 281.427 16.298ZM291.074 16.298C292.406 16.298 293.438 16.742 294.17 17.63C294.914 18.518 295.286 19.724 295.286 21.248C295.286 22.232 295.118 23.102 294.782 23.858C294.446 24.602 293.96 25.184 293.324 25.604C292.688 26.012 291.932 26.216 291.056 26.216C289.724 26.216 288.686 25.772 287.942 24.884C287.198 23.996 286.826 22.79 286.826 21.266C286.826 20.282 286.994 19.418 287.33 18.674C287.666 17.918 288.152 17.336 288.788 16.928C289.424 16.508 290.186 16.298 291.074 16.298ZM291.074 17.63C289.43 17.63 288.608 18.842 288.608 21.266C288.608 23.678 289.424 24.884 291.056 24.884C292.688 24.884 293.504 23.672 293.504 21.248C293.504 18.836 292.694 17.63 291.074 17.63ZM307.544 16.298C308.324 16.298 308.948 16.562 309.416 17.09C309.884 17.606 310.118 18.308 310.118 19.196V26H308.462V19.43C308.462 18.206 308.018 17.594 307.13 17.594C306.662 17.594 306.266 17.732 305.942 18.008C305.618 18.272 305.27 18.692 304.898 19.268V26H303.242V19.43C303.242 18.206 302.798 17.594 301.91 17.594C301.43 17.594 301.028 17.732 300.704 18.008C300.38 18.284 300.038 18.704 299.678 19.268V26H298.022V16.514H299.444L299.588 17.9C300.296 16.832 301.208 16.298 302.324 16.298C302.912 16.298 303.41 16.448 303.818 16.748C304.238 17.048 304.538 17.468 304.718 18.008C305.09 17.456 305.498 17.036 305.942 16.748C306.398 16.448 306.932 16.298 307.544 16.298ZM317.13 26.054C316.758 27.158 316.236 28.028 315.564 28.664C314.904 29.312 313.956 29.702 312.72 29.834L312.54 28.538C313.164 28.43 313.662 28.274 314.034 28.07C314.406 27.866 314.7 27.602 314.916 27.278C315.144 26.966 315.354 26.54 315.546 26H314.988L311.802 16.514H313.566L316.104 24.794L318.588 16.514H320.298L317.13 26.054Z" fill="black"/>
</svg>
