<svg width="208" height="208" viewBox="0 0 208 208" fill="none" xmlns="http://www.w3.org/2000/svg">
<rect x="0.5" y="0.5" width="207" height="207" rx="39.5" fill="#55CDFC" stroke="black"/>
<path d="M107.125 24C82.125 24 65.875 34.3125 53.0625 52.75C50.875 55.875 51.5 60.5625 54.9375 62.75L68.375 73.0625C71.5 75.5625 76.1875 74.9375 78.6875 71.8125C86.5 62.125 92.4375 56.5 104.625 56.5C114.312 56.5 126.188 62.4375 126.188 71.8125C126.188 79 120.25 82.4375 110.875 87.75C99.625 94 84.9375 101.812 84.9375 121.188V124C84.9375 128.375 88.375 131.5 92.4375 131.5H115.25C119.312 131.5 122.75 128.375 122.75 124V122.438C122.75 109 161.812 108.375 161.812 72.125C161.812 44.9375 133.375 24 107.125 24ZM104 140.875C91.8125 140.875 82.125 150.562 82.125 162.438C82.125 174.312 91.8125 184 104 184C115.875 184 125.562 174.312 125.562 162.438C125.562 150.562 115.875 140.875 104 140.875Z" fill="white"/>
</svg>
