<svg width="208" height="208" viewBox="0 0 208 208" fill="none" xmlns="http://www.w3.org/2000/svg">
<rect x="0.5" y="0.500031" width="207" height="207" rx="39.5" fill="#F7A8B8" stroke="black"/>
<path d="M62.6864 93.408C64.5744 93.408 66.3824 93.712 68.1104 94.32C69.8704 94.896 71.3424 95.696 72.5264 96.72L69.1664 101.856C68.2384 101.28 67.2464 100.832 66.1904 100.512C65.1344 100.16 64.0944 99.984 63.0704 99.984C61.6304 99.984 60.9104 100.368 60.9104 101.136C60.9104 101.456 61.0064 101.728 61.1984 101.952C61.3904 102.144 61.8384 102.4 62.5424 102.72C63.2784 103.008 64.4464 103.392 66.0464 103.872C68.6064 104.672 70.4944 105.696 71.7104 106.944C72.9584 108.16 73.5824 109.888 73.5824 112.128C73.5824 113.856 73.0544 115.392 71.9984 116.736C70.9744 118.08 69.5344 119.12 67.6784 119.856C65.8544 120.592 63.7744 120.96 61.4384 120.96C59.1984 120.96 57.0864 120.608 55.1024 119.904C53.1504 119.168 51.5024 118.16 50.1584 116.88L54.6704 111.888C55.6304 112.656 56.6704 113.28 57.7904 113.76C58.9424 114.208 60.0784 114.432 61.1984 114.432C62.0624 114.432 62.7184 114.304 63.1664 114.048C63.6464 113.76 63.8864 113.36 63.8864 112.848C63.8864 112.4 63.7744 112.064 63.5504 111.84C63.3584 111.584 62.9424 111.344 62.3024 111.12C61.6624 110.864 60.5424 110.496 58.9424 110.016C53.9824 108.544 51.5024 105.776 51.5024 101.712C51.5024 100.144 51.9344 98.736 52.7984 97.488C53.6944 96.24 54.9744 95.248 56.6384 94.512C58.3344 93.776 60.3504 93.408 62.6864 93.408ZM88.0863 93.408C92.1823 93.408 95.3983 94.608 97.7343 97.008C100.102 99.408 101.286 102.816 101.286 107.232C101.286 109.984 100.742 112.4 99.6543 114.48C98.5983 116.56 97.0783 118.16 95.0943 119.28C93.1103 120.4 90.7743 120.96 88.0863 120.96C83.9903 120.96 80.7583 119.76 78.3903 117.36C76.0543 114.96 74.8863 111.552 74.8863 107.136C74.8863 104.384 75.4143 101.968 76.4703 99.888C77.5583 97.808 79.0943 96.208 81.0783 95.088C83.0623 93.968 85.3983 93.408 88.0863 93.408ZM88.0863 100.224C86.8703 100.224 85.9903 100.768 85.4463 101.856C84.9023 102.944 84.6303 104.704 84.6303 107.136C84.6303 109.664 84.9023 111.472 85.4463 112.56C85.9903 113.616 86.8703 114.144 88.0863 114.144C89.3023 114.144 90.1823 113.6 90.7263 112.512C91.2703 111.424 91.5423 109.664 91.5423 107.232C91.5423 104.704 91.2703 102.912 90.7263 101.856C90.1823 100.768 89.3023 100.224 88.0863 100.224ZM116.118 93.408C120.214 93.408 123.43 94.608 125.766 97.008C128.134 99.408 129.318 102.816 129.318 107.232C129.318 109.984 128.774 112.4 127.686 114.48C126.63 116.56 125.11 118.16 123.126 119.28C121.142 120.4 118.806 120.96 116.118 120.96C112.022 120.96 108.79 119.76 106.422 117.36C104.086 114.96 102.918 111.552 102.918 107.136C102.918 104.384 103.446 101.968 104.502 99.888C105.59 97.808 107.126 96.208 109.11 95.088C111.094 93.968 113.43 93.408 116.118 93.408ZM116.118 100.224C114.902 100.224 114.022 100.768 113.478 101.856C112.934 102.944 112.662 104.704 112.662 107.136C112.662 109.664 112.934 111.472 113.478 112.56C114.022 113.616 114.902 114.144 116.118 114.144C117.334 114.144 118.214 113.6 118.758 112.512C119.302 111.424 119.574 109.664 119.574 107.232C119.574 104.704 119.302 102.912 118.758 101.856C118.214 100.768 117.334 100.224 116.118 100.224ZM148.901 93.408C151.045 93.408 152.725 94.08 153.941 95.424C155.189 96.768 155.813 98.656 155.813 101.088V120H146.309V102.816C146.309 101.856 146.181 101.2 145.925 100.848C145.701 100.496 145.349 100.32 144.869 100.32C143.813 100.32 142.741 101.168 141.653 102.864V120H132.149V94.368H140.453L141.125 97.008C142.309 95.76 143.509 94.848 144.725 94.272C145.973 93.696 147.365 93.408 148.901 93.408Z" fill="white"/>
</svg>
