<svg width="208" height="208" viewBox="0 0 208 208" fill="none" xmlns="http://www.w3.org/2000/svg">
<rect x="0.5" y="0.5" width="207" height="207" rx="39.5" fill="#F7A8B8" stroke="black"/>
<path d="M34 169C34 177.438 40.5625 184 49 184H159C167.125 184 174 177.438 174 169V84H34V169ZM134 107.75C134 105.875 135.562 104 137.75 104H150.25C152.125 104 154 105.875 154 107.75V120.25C154 122.438 152.125 124 150.25 124H137.75C135.562 124 134 122.438 134 120.25V107.75ZM134 147.75C134 145.875 135.562 144 137.75 144H150.25C152.125 144 154 145.875 154 147.75V160.25C154 162.438 152.125 164 150.25 164H137.75C135.562 164 134 162.438 134 160.25V147.75ZM94 107.75C94 105.875 95.5625 104 97.75 104H110.25C112.125 104 114 105.875 114 107.75V120.25C114 122.438 112.125 124 110.25 124H97.75C95.5625 124 94 122.438 94 120.25V107.75ZM94 147.75C94 145.875 95.5625 144 97.75 144H110.25C112.125 144 114 145.875 114 147.75V160.25C114 162.438 112.125 164 110.25 164H97.75C95.5625 164 94 162.438 94 160.25V147.75ZM54 107.75C54 105.875 55.5625 104 57.75 104H70.25C72.125 104 74 105.875 74 107.75V120.25C74 122.438 72.125 124 70.25 124H57.75C55.5625 124 54 122.438 54 120.25V107.75ZM54 147.75C54 145.875 55.5625 144 57.75 144H70.25C72.125 144 74 145.875 74 147.75V160.25C74 162.438 72.125 164 70.25 164H57.75C55.5625 164 54 162.438 54 160.25V147.75ZM159 44H144V29C144 26.5 141.5 24 139 24H129C126.188 24 124 26.5 124 29V44H84V29C84 26.5 81.5 24 79 24H69C66.1875 24 64 26.5 64 29V44H49C40.5625 44 34 50.875 34 59V74H174V59C174 50.875 167.125 44 159 44Z" fill="white"/>
</svg>
